<?xml version="1.0" standalone="no"?>
<!DOCTYPE svg PUBLIC "-//W3C//DTD SVG 20010904//EN"
 "http://www.w3.org/TR/2001/REC-SVG-20010904/DTD/svg10.dtd">
<svg version="1.0" xmlns="http://www.w3.org/2000/svg"
 width="400.000000pt" height="400.000000pt" viewBox="0 0 400.000000 400.000000"
 preserveAspectRatio="xMidYMid meet">
<metadata>
Created by potrace 1.14, written by Peter Selinger 2001-2017
</metadata>
<g transform="translate(0.000000,400.000000) scale(0.100000,-0.100000)"
fill="#000000" stroke="none">
<path d="M1771 3989 c-184 -34 -412 -263 -520 -522 -66 -159 -84 -240 -85
-387 -1 -155 3 -190 39 -297 l26 -77 -33 -25 c-167 -128 -224 -279 -167 -448
22 -68 74 -143 163 -238 52 -55 173 -225 205 -287 13 -25 11 -29 -42 -95 -65
-81 -107 -154 -141 -245 -25 -67 -28 -75 -45 -158 -10 -47 -7 -312 3 -365 4
-16 11 -52 16 -80 23 -124 53 -225 102 -348 55 -136 110 -227 184 -301 87 -88
138 -111 244 -111 77 0 92 3 155 34 57 27 92 56 185 151 146 149 181 175 401
306 207 123 295 193 354 279 59 88 78 151 81 275 3 93 0 124 -20 219 -13 59
-42 132 -84 212 l-45 85 28 44 c84 133 126 298 121 475 -2 66 -6 129 -9 140
-3 11 -11 43 -17 70 -14 55 -94 230 -115 252 -12 11 -9 20 15 56 52 77 103
210 118 307 4 25 7 99 7 165 -1 98 -5 132 -23 187 -54 157 -159 264 -403 407
-164 98 -331 202 -399 251 -89 64 -194 88 -299 69z"/>
</g>
</svg>
