<svg width="533.333" height="533.333" xmlns="http://www.w3.org/2000/svg"><path style="fill:#f4f2e4;stroke-width:.666667" d="M226 532.307c-25.416-7.06-45.634-37.217-58.016-86.532-9.142-36.413-9.65-66.154-1.543-90.384 5.342-15.967 13.688-30.2 24.653-42.044l3.646-3.938-1.085-2.099c-1.84-3.558-9.63-16.027-13.52-21.643-5.061-7.305-10.56-13.977-18.325-22.235-7.18-7.636-11.055-12.76-14.744-19.496-12.59-22.985-7.164-46.508 14.977-64.936 3.267-2.72 6.537-5.264 7.267-5.654 1.319-.706 1.318-.727-.086-4.194-2.544-6.284-5.22-15.356-6.73-22.819-1.262-6.238-1.479-9.424-1.454-21.333.026-12.647.205-14.831 1.852-22.601 2.688-12.68 7.128-25.295 13.399-38.066 13.58-27.656 31.783-47.854 51.998-57.696 9.6-4.674 16.634-6.214 26.378-5.774 11.832.533 17.864 2.924 30.722 12.176 10.105 7.27 20.663 13.927 40.492 25.528 18.894 11.054 25.701 15.373 33.063 20.978 19.965 15.198 30.205 31.792 33.126 53.684 1.084 8.121.406 24.637-1.384 33.69-2.737 13.846-8.713 29.038-15.62 39.717-1.687 2.607-3.066 4.856-3.066 4.999 0 .142 1.458 2.61 3.24 5.483 8.849 14.267 14.866 31.539 16.795 48.212 1.106 9.555.485 25.647-1.35 34.922-2.736 13.846-8.712 29.039-15.62 39.718-1.686 2.606-3.065 4.855-3.065 4.998 0 .143 1.458 2.61 3.24 5.483 6.555 10.57 10.498 19.901 13.754 32.549 2.906 11.284 3.915 20.36 3.514 31.602-.919 25.796-12.664 43.786-40.175 61.536-3.666 2.366-13.266 8.141-21.333 12.835-24.553 14.285-36.34 23.092-46.195 34.514-13.16 15.254-23.668 23.415-35.532 27.593-6.3 2.219-17.564 2.813-23.273 1.227zm17.67-9.212c11.161-2.972 19.265-9.17 36.614-28.002 11.747-12.75 20.645-19.314 47.092-34.74 20.644-12.042 29.626-18.135 36.811-24.973 13.394-12.746 18.29-23.436 18.952-41.38.852-23.098-6.015-45.582-19.752-64.667L360.27 325l3.87-5.333c7.59-10.46 14.185-25.804 17.192-40 1.836-8.672 2.492-25.07 1.363-34.09-2.268-18.118-9.74-36.997-19.935-50.366l-2.577-3.38 3.915-5.415c7.693-10.644 14.158-25.716 17.336-40.416 1.3-6.015 1.512-8.924 1.5-20.667-.013-11.98-.195-14.317-1.474-18.939-3.259-11.778-7.883-19.993-16.117-28.634-9.56-10.033-17.315-15.479-45.675-32.074-18.646-10.91-31.55-19.081-39.985-25.32-10.323-7.634-17.44-10.372-26.919-10.356-13.702.023-26.504 6.084-39.896 18.887-18.072 17.277-32.507 42.534-39.122 68.454-3.168 12.416-4.01 20.087-3.54 32.233.578 14.892 3.673 27.845 9.753 40.82l2.553 5.448-6.422 4.187c-8.55 5.575-18.234 15.301-21.535 21.628-6.582 12.616-6.395 24.811.575 37.666 3.344 6.167 6.132 9.787 14.047 18.235 11.884 12.685 19.005 22.43 30.767 42.102l6.61 11.056-5.776 5.87c-16.276 16.535-26.288 36.673-29.792 59.924-3.612 23.957 2.712 64.654 14.834 95.48 13.23 33.64 30.663 51.94 49.514 51.975 2.75.005 6.502-.39 8.337-.88z" transform="translate(.165 -.33)"/><path style="fill:#d3935c;stroke-width:.666667" d="M269 506.667c1.806-1.834 3.433-3.334 3.617-3.334.183 0-1.145 1.5-2.95 3.334-1.806 1.833-3.434 3.333-3.617 3.333-.183 0 1.144-1.5 2.95-3.333zm13.667-15c.86-.917 1.715-1.667 1.899-1.667.183 0-.372.75-1.233 1.667-.86.916-1.715 1.666-1.899 1.666-.183 0 .371-.75 1.233-1.666zM201 316c1.432-1.467 2.754-2.667 2.937-2.667.184 0-.838 1.2-2.27 2.667-1.432 1.467-2.754 2.667-2.938 2.667-.183 0 .839-1.2 2.271-2.667zm181.72-48.389c.031-.777.19-.934.402-.403.193.482.169 1.057-.053 1.278-.221.222-.379-.172-.35-.875zm-209.472-5.444c-.829-1.058-.805-1.081.252-.252 1.11.87 1.464 1.418.915 1.418-.138 0-.663-.525-1.167-1.166zm209.471-13.223c.032-.776.19-.934.403-.402.193.48.169 1.056-.053 1.277-.221.222-.379-.172-.35-.875zm-233.231-29.61c0-1.284.137-1.809.305-1.167.168.641.168 1.691 0 2.333-.168.642-.305.117-.305-1.167zm124.33-67.815c1.184-.147 3.284-.15 4.667-.005 1.383.144.415.265-2.152.268-2.566.003-3.698-.116-2.515-.263zM170.72 139.61c.032-.777.19-.934.403-.403.193.482.169 1.057-.053 1.278-.221.222-.379-.172-.35-.875zm211.334 0c.032-.777.19-.934.402-.403.193.482.17 1.057-.052 1.278-.222.222-.38-.172-.35-.875zm-211.898-6.278c0-1.283.137-1.808.305-1.166.167.641.167 1.691 0 2.333-.168.642-.305.117-.305-1.167zm212.666 0c0-1.283.138-1.808.305-1.166.168.641.168 1.691 0 2.333-.167.642-.305.117-.305-1.167zm-212.666-16c0-1.283.137-1.808.305-1.166.167.641.167 1.691 0 2.333-.168.642-.305.117-.305-1.167zm212.666 0c0-1.283.138-1.808.305-1.166.168.641.168 1.691 0 2.333-.167.642-.305.117-.305-1.167zm-212.05-6c0-.916.152-1.291.337-.833.185.458.185 1.208 0 1.667-.185.458-.336.083-.336-.834zm211.282.278c.032-.777.19-.934.402-.403.193.482.17 1.057-.052 1.278-.222.222-.38-.172-.35-.875zm-210.667-4.667c.032-.776.19-.934.403-.402.192.48.169 1.056-.053 1.277-.221.222-.379-.172-.35-.875zM367.603 80.5l-1.27-1.5 1.5 1.27c.825.698 1.5 1.373 1.5 1.5 0 .533-.536.14-1.73-1.27zm-8.666-8.667-1.27-1.5 1.5 1.27c.825.699 1.5 1.374 1.5 1.5 0 .534-.537.14-1.73-1.27zm-4.355-3.666c-.83-1.058-.806-1.081.251-.252.642.503 1.167 1.028 1.167 1.167 0 .548-.547.195-1.418-.915zM201.333 41.082c0-.139.525-.664 1.167-1.167 1.057-.83 1.08-.806.252.252-.871 1.11-1.419 1.463-1.419.915zM205.667 36c.663-.733 1.356-1.333 1.54-1.333.183 0-.21.6-.874 1.333-.663.733-1.356 1.333-1.54 1.333-.183 0 .21-.6.874-1.333zm10-10c.663-.733 1.356-1.333 1.54-1.333.183 0-.21.6-.874 1.333-.663.733-1.356 1.333-1.54 1.333-.183 0 .21-.6.874-1.333zm30.875-15.789c.48-.192 1.056-.169 1.277.053.222.221-.172.379-.875.35-.776-.032-.934-.19-.402-.403zm10.625.014c.458-.185 1.208-.185 1.666 0 .459.185.084.336-.833.336-.917 0-1.292-.15-.833-.336z" transform="translate(.165 -.33)"/><path style="fill:#f47b2f;stroke-width:.666667" d="M353.667 184.85c-18.36-19.43-41.574-30.495-68.964-32.874-26.168-2.272-68.582 6.882-95.584 20.63l-6.337 3.226-2.678-5.763c-5.426-11.68-8.238-22.393-9.523-36.287-1.838-19.878 3.312-43.265 14.478-65.74 19.635-39.524 49.703-62.481 74.826-57.132 6.955 1.48 11.047 3.557 21.01 10.66 10.642 7.585 20.135 13.546 39.438 24.76 18.068 10.498 31.607 19.452 38.808 25.666 18.252 15.75 25.94 35.797 23.616 61.587-1.307 14.51-4.138 25.078-10.042 37.485-3.406 7.155-11.821 20.448-12.789 20.198-.142-.037-2.96-2.924-6.26-6.416z" transform="translate(.165 -.33)"/><path style="fill:#787c55;stroke-width:.666667" d="M230.542 523.545c.48-.193 1.056-.17 1.277.052.222.222-.172.38-.875.35-.776-.032-.934-.19-.402-.402zm8.666 0c.482-.193 1.057-.17 1.278.052.222.222-.172.38-.875.35-.777-.032-.934-.19-.403-.402zm-29.875-11.878c-1.619-1.65-2.794-3-2.61-3 .183 0 1.658 1.35 3.277 3 1.62 1.65 2.794 3 2.61 3-.182 0-1.657-1.35-3.277-3zM262 513.082c0-.139.525-.664 1.167-1.167 1.057-.83 1.08-.806.251.252-.87 1.11-1.418 1.463-1.418.915zm12-12c0-.139.525-.664 1.167-1.167 1.057-.83 1.08-.806.251.252-.87 1.11-1.418 1.463-1.418.915zm5.333-6.082c.861-.917 1.716-1.667 1.9-1.667.183 0-.372.75-1.233 1.667-.861.917-1.716 1.667-1.9 1.667-.182 0 .372-.75 1.233-1.667zm5.334-5.209c0-.114.975-1.09 2.166-2.166l2.167-1.958-1.958 2.166c-1.825 2.02-2.375 2.473-2.375 1.958zm77-52.458c.663-.733 1.356-1.333 1.54-1.333.183 0-.21.6-.874 1.333-.663.734-1.356 1.334-1.54 1.334-.183 0 .21-.6.874-1.334zm7-6.918c0-.138.525-.663 1.166-1.167 1.058-.829 1.081-.805.252.252-.87 1.11-1.418 1.464-1.418.915zM172.053 419.61c.032-.777.19-.934.402-.403.193.482.17 1.057-.052 1.278-.222.222-.38-.172-.35-.875zm-.667-4.667c.032-.776.19-.934.403-.402.192.48.169 1.056-.053 1.277-.221.222-.379-.172-.35-.875zm-.614-5.61c0-.917.151-1.292.336-.834.185.458.185 1.208 0 1.667-.185.458-.336.083-.336-.834zm-.59-8c0-1.65.13-2.326.288-1.5.16.824.16 2.174 0 3-.158.824-.288.15-.288-1.5zm212.615-3c.013-1.1.163-1.47.332-.821.169.648.158 1.548-.025 2-.183.451-.321-.08-.307-1.18zm-212.642-15c0-1.284.137-1.809.305-1.167.167.641.167 1.691 0 2.333-.168.642-.305.117-.305-1.167zm212.666 0c0-1.284.138-1.809.305-1.167.168.641.168 1.691 0 2.333-.167.642-.305.117-.305-1.167zm-212.102-6.39c.032-.776.19-.934.403-.402.193.48.169 1.056-.053 1.277-.221.222-.379-.172-.35-.875zm211.334 0c.032-.776.19-.934.402-.402.193.48.17 1.056-.052 1.277-.222.222-.38-.172-.35-.875zm-30.72-60.915c-20.22-20.464-45.468-30.919-74.666-30.919-17.493 0-32.473 3.512-48.032 11.263-5.384 2.681-15.105 8.92-19.737 12.665l-2.101 1.7-6.495-10.87c-11.778-19.711-18.861-29.358-31.159-42.436-14.263-15.17-19.652-26.447-18.99-39.735.521-10.43 4.457-18.4 13.545-27.427 6.17-6.13 19.018-15.123 19.507-13.656.166.5 2.417 4.09 5 7.98 6.343 9.547 19.547 22.798 28.846 28.947 36.467 24.115 82.821 24.112 119.231-.008 4.493-2.976 9.569-7.271 15.327-12.97 7.793-7.713 8.694-8.412 9.51-7.375 3.465 4.408 8.704 13 11.505 18.869 14.457 30.296 14.223 64.275-.645 93.97-3.303 6.597-11.054 18.716-11.855 18.537-.251-.056-4.207-3.897-8.79-8.536zm-156.666 7.053c0-.139.525-.664 1.166-1.167 1.058-.83 1.081-.806.252.252-.87 1.11-1.418 1.463-1.418.915z" transform="translate(.165 -.33)"/><path style="fill:#3a4d5e;stroke-width:.666667" d="M228.423 522.942c-6.573-1.59-11.534-4.705-18.48-11.599-9.225-9.158-16.561-21.122-23.2-37.836-11.595-29.196-18.458-68.148-16.122-91.507 2.564-25.632 12.696-47.097 30.98-65.632 3.998-4.052 6.904-6.865 6.459-6.25-.95 1.311-.662 1.965 4.72 10.732 9.064 14.763 19.315 26.98 27.523 32.802 5.433 3.854 12.571 7.353 18.483 9.06 6.331 1.828 22.28 2.488 31.67 1.31 24.046-3.018 45.887-14.126 63.36-32.223l6.148-6.37 1.932 2.453c11.132 14.126 18.81 33.997 20.78 53.785 1.902 19.091-1.932 34.053-11.895 46.424-7.64 9.485-17.71 16.938-41.781 30.925-26.577 15.442-38.4 24.033-48.824 35.478-11.582 12.714-14.59 15.705-19.634 19.512-6.455 4.873-12.24 7.728-18.209 8.987-5.681 1.198-8.799 1.187-13.91-.05zm27.452-236.064c.481-.193 1.056-.169 1.278.053.221.221-.172.379-.875.35-.777-.032-.935-.19-.403-.403zm40.667 0c.48-.193 1.056-.169 1.277.053.222.221-.172.379-.875.35-.776-.032-.934-.19-.402-.403zm-36.667-.667c.481-.192 1.056-.169 1.278.053.221.221-.172.379-.875.35-.777-.032-.935-.19-.403-.403zm32.667 0c.48-.192 1.056-.169 1.277.053.222.221-.172.379-.875.35-.776-.032-.934-.19-.402-.403zm-28.042-.653c.458-.184 1.208-.184 1.667 0 .458.185.083.337-.834.337-.916 0-1.291-.152-.833-.337zm22.667 0c.458-.184 1.208-.184 1.666 0 .459.185.084.337-.833.337-.917 0-1.292-.152-.833-.337zm-13-.71c1.375-.144 3.625-.144 5 0s.25.261-2.5.261-3.875-.117-2.5-.261z" transform="translate(.165 -.33)"/><path style="fill:#753d10;stroke-width:.666667" d="M267.661 231.315c-17.458-1.438-35.477-7.767-50.61-17.774-9.36-6.19-22.5-19.394-28.933-29.077-2.631-3.96-4.785-7.616-4.785-8.122 0-2.273 24.082-12.2 40.663-16.761 20.01-5.504 32.584-7.252 52.004-7.229 14.802.018 16.108.122 23.667 1.895 21.182 4.968 36.876 13.628 52.246 28.832l8.247 8.157-1.36 1.91c-.748 1.05-4.633 5.072-8.634 8.937-17.733 17.133-40.132 27.159-65.342 29.248-8.516.705-8.41.705-17.163-.016z" transform="translate(.165 -.33)"/><path style="fill:#1c261f;stroke-width:.666667" d="M264.554 363.985c-20.208-3.41-35.689-16.557-52.732-44.782-2.48-4.109-4.414-7.785-4.297-8.17.574-1.876 12.955-10.152 21.475-14.355 17.304-8.535 27.993-11.003 47.667-11.003 19.671 0 30.358 2.467 47.666 11.002 12.997 6.408 24.395 15.18 33.098 25.471l2.662 3.149-6.213 6.443c-16.874 17.499-37.802 28.485-60.758 31.893-7.285 1.082-23.088 1.276-28.568.352z" transform="translate(.165 -.33)"/></svg>