<?xml version="1.0" encoding="UTF-8" standalone="no"?>
<!-- Created with Inkscape (http://www.inkscape.org/) -->

<svg
   width="1060"
   height="520"
   viewBox="0 0 280.45833 137.58333"
   version="1.1"
   id="svg760"
   inkscape:version="1.2.1 (9c6d41e410, 2022-07-14)"
   sodipodi:docname="edt-logo.svg"
   xmlns:inkscape="http://www.inkscape.org/namespaces/inkscape"
   xmlns:sodipodi="http://sodipodi.sourceforge.net/DTD/sodipodi-0.dtd"
   xmlns="http://www.w3.org/2000/svg"
   xmlns:svg="http://www.w3.org/2000/svg">
  <sodipodi:namedview
     id="namedview762"
     pagecolor="#ffffff"
     bordercolor="#000000"
     borderopacity="0.25"
     inkscape:showpageshadow="2"
     inkscape:pageopacity="0.0"
     inkscape:pagecheckerboard="0"
     inkscape:deskcolor="#d1d1d1"
     inkscape:document-units="mm"
     showgrid="false"
     inkscape:zoom="0.23251263"
     inkscape:cx="365.57154"
     inkscape:cy="563.41026"
     inkscape:window-width="1366"
     inkscape:window-height="703"
     inkscape:window-x="0"
     inkscape:window-y="0"
     inkscape:window-maximized="1"
     inkscape:current-layer="layer1" />
  <defs
     id="defs757" />
  <g
     inkscape:label="Camada 1"
     inkscape:groupmode="layer"
     id="layer1">
    <g
       id="g988"
       transform="translate(2.3890303,-16.29996)">
      <path
         style="fill:#bac0c3;stroke-width:0.352777"
         d="m 17.180471,98.441701 c 0,-0.07325 0.277812,-0.351065 0.617361,-0.61736 0.559525,-0.438809 0.572003,-0.426331 0.133193,0.133194 -0.460858,0.587639 -0.750554,0.774517 -0.750554,0.484166 z m 81.844444,-3.175 c 0,-0.07325 0.27781,-0.351065 0.61736,-0.61736 0.559525,-0.438809 0.572005,-0.426331 0.13319,0.133194 -0.46086,0.587639 -0.75055,0.774517 -0.75055,0.484166 z"
         id="path654" />
      <path
         style="fill:#969fa2;stroke-width:0.352777"
         d="m 19.604917,149.81586 c -0.43881,-0.55952 -0.426333,-0.572 0.133193,-0.13319 0.587639,0.46086 0.774516,0.75056 0.484168,0.75056 -0.07326,0 -0.351069,-0.27782 -0.617361,-0.61737 z m 70.756568,-27.60485 c 0,-5.72382 0.0485,-8.06539 0.10781,-5.20348 0.0593,2.86191 0.0593,7.54504 0,10.40695 -0.0593,2.86191 -0.10781,0.52035 -0.10781,-5.20347 z m 74.417165,5.82083 c 7.9e-4,-2.52236 0.0568,-3.50795 0.12487,-2.19019 0.0681,1.31776 0.0676,3.38151 -10e-4,4.58611 -0.0687,1.2046 -0.12437,0.12644 -0.12375,-2.39592 z m 23.30285,-6.17361 c 0,-5.91785 0.0483,-8.33879 0.10728,-5.37986 0.059,2.95892 0.059,7.80079 0,10.75972 -0.059,2.95892 -0.10728,0.53799 -0.10728,-5.37986 z m -33.9954,7.9081 c 0.0169,-0.41097 0.10052,-0.49456 0.21313,-0.21314 0.10191,0.25466 0.0894,0.55894 -0.0278,0.67616 -0.11723,0.11723 -0.2006,-0.0911 -0.18529,-0.46302 z m -45.04322,-8.26088 c 0,-2.8134 0.0548,-3.96434 0.12175,-2.55764 0.067,1.4067 0.067,3.70858 0,5.11528 -0.067,1.4067 -0.12175,0.25576 -0.12175,-2.55764 z m 24.34167,0 c 0,-2.8134 0.0548,-3.96434 0.12175,-2.55764 0.067,1.4067 0.067,3.70858 0,5.11528 -0.067,1.4067 -0.12175,0.25576 -0.12175,-2.55764 z m -37.859565,2.26366 c 0.0169,-0.41097 0.10052,-0.49456 0.21314,-0.21314 0.1019,0.25466 0.0894,0.55894 -0.0278,0.67616 -0.11722,0.11722 -0.2006,-0.0911 -0.18528,-0.46302 z m 24.341675,0 c 0.0169,-0.41097 0.10052,-0.49456 0.21313,-0.21314 0.10191,0.25466 0.0894,0.55894 -0.0278,0.67616 -0.11723,0.11722 -0.20061,-0.0911 -0.18529,-0.46302 z M 9.4472111,122.358 c 0.01693,-0.41097 0.100521,-0.49456 0.213137,-0.21314 0.101907,0.25466 0.08937,0.55893 -0.02785,0.67616 -0.117225,0.11722 -0.200604,-0.0911 -0.185287,-0.46302 z M 117.07228,121.85823 c 0,-0.48507 0.0801,-0.68351 0.17794,-0.44097 0.0979,0.24253 0.0979,0.6394 0,0.88194 -0.0979,0.24254 -0.17794,0.0441 -0.17794,-0.44097 z m 24.34167,0 c 0,-0.48507 0.0801,-0.68351 0.17793,-0.44097 0.0979,0.24253 0.0979,0.6394 0,0.88194 -0.0979,0.24254 -0.17793,0.0441 -0.17793,-0.44097 z m -45.888965,-1.96968 c 0.0169,-0.41096 0.10052,-0.49456 0.21314,-0.21314 0.1019,0.25467 0.0894,0.55894 -0.0278,0.67616 -0.11722,0.11723 -0.2006,-0.0911 -0.18528,-0.46302 z m 24.341675,0 c 0.0169,-0.41096 0.10052,-0.49456 0.21313,-0.21314 0.10191,0.25467 0.0894,0.55894 -0.0278,0.67616 -0.11723,0.11723 -0.20061,-0.0911 -0.18529,-0.46302 z m 44.92477,-8.26088 c 0,-4.17159 0.051,-5.87816 0.1134,-3.79236 0.0624,2.0858 0.0624,5.49893 0,7.58472 -0.0624,2.0858 -0.1134,0.37924 -0.1134,-3.79236 z m 9.52447,-21.695829 c 2.7e-4,-4.074583 0.0516,-5.69314 0.11412,-3.596798 0.0625,2.096344 0.0622,5.430094 -2.6e-4,7.408333 -0.0628,1.978239 -0.11389,0.263049 -0.1136,-3.811535 z m 12.70402,-1.5875 c 0,-4.947708 0.0496,-6.97177 0.11026,-4.497916 0.0606,2.473854 0.0606,6.521979 0,8.995833 -0.0606,2.473854 -0.11026,0.449792 -0.11026,-4.497917 z m 23.91948,-4.997685 c -0.0648,-10.80095 -0.18454,-14.034114 -0.5249,-14.171454 -0.3454,-0.139369 -0.343,-0.183972 0.0111,-0.205785 0.24863,-0.01532 0.52834,0.170966 0.62159,0.413962 0.0933,0.243001 0.12604,6.632689 0.0729,14.199306 l -0.0967,13.75749 z m 35.3396,7.643519 c 2.7e-4,-3.4925 0.0532,-4.873533 0.11732,-3.068963 0.0642,1.804572 0.0639,4.662072 -7.9e-4,6.35 -0.0645,1.68793 -0.11701,0.211463 -0.11664,-3.281037 z M 86.474235,83.934621 c 2.6e-4,-4.074583 0.0516,-5.693143 0.11412,-3.596799 0.0625,2.096342 0.0622,5.430092 -2.7e-4,7.408331 -0.0628,1.978242 -0.11388,0.263049 -0.11359,-3.811532 z m 18.575755,4.556712 c 0.0169,-0.410969 0.10052,-0.494559 0.21314,-0.213137 0.1019,0.254658 0.0894,0.558929 -0.0278,0.676158 -0.11723,0.117224 -0.2006,-0.09114 -0.18529,-0.463021 z m 37.74722,0 c 0.0169,-0.410969 0.10052,-0.494559 0.21314,-0.213137 0.1019,0.254658 0.0894,0.558929 -0.0278,0.676158 -0.11722,0.117224 -0.2006,-0.09114 -0.18528,-0.463021 z m 47.27222,0 c 0.0169,-0.410969 0.10052,-0.494559 0.21314,-0.213137 0.1019,0.254658 0.0894,0.558929 -0.0278,0.676158 -0.11722,0.117224 -0.2006,-0.09114 -0.18528,-0.463021 z m 24.34167,0 c 0.0169,-0.410969 0.10052,-0.494559 0.21313,-0.213137 0.10191,0.254658 0.0894,0.558929 -0.0278,0.676158 -0.11723,0.117224 -0.20061,-0.09114 -0.18529,-0.463021 z M 65.538875,85.669113 c 0.0169,-0.410969 0.10052,-0.494559 0.21314,-0.213138 0.1019,0.254659 0.0894,0.55893 -0.0278,0.676156 -0.11723,0.117226 -0.2006,-0.09114 -0.18528,-0.463018 z M 105.04999,84.61078 c 0.0169,-0.41097 0.10052,-0.49456 0.21314,-0.213138 0.1019,0.254659 0.0894,0.558929 -0.0278,0.676158 -0.11723,0.117224 -0.2006,-0.09114 -0.18529,-0.46302 z m 37.74722,0 c 0.0169,-0.41097 0.10052,-0.49456 0.21314,-0.213138 0.1019,0.254659 0.0894,0.558929 -0.0278,0.676158 -0.11722,0.117224 -0.2006,-0.09114 -0.18528,-0.46302 z m 47.27222,0 c 0.0169,-0.41097 0.10052,-0.49456 0.21314,-0.213138 0.1019,0.254659 0.0894,0.558929 -0.0278,0.676158 -0.11722,0.117224 -0.2006,-0.09114 -0.18528,-0.46302 z m 24.34167,0 c 0.0169,-0.41097 0.10052,-0.49456 0.21313,-0.213138 0.10191,0.254659 0.0894,0.558929 -0.0278,0.676158 -0.11723,0.117224 -0.20061,-0.09114 -0.18529,-0.46302 z m 38.16111,-2.087272 c 0.004,-0.77611 0.0762,-1.052071 0.16054,-0.613246 0.0844,0.438822 0.0812,1.073822 -0.007,1.41111 -0.0883,0.337289 -0.15734,-0.02178 -0.15342,-0.797864 z m -1.47223,-0.382175 c 0.0169,-0.410966 0.10052,-0.494559 0.21314,-0.213137 0.10191,0.254661 0.0894,0.558932 -0.0278,0.676158 -0.11722,0.117226 -0.2006,-0.09114 -0.18528,-0.463021 z M 65.538875,80.024667 c 0.0169,-0.410967 0.10052,-0.494559 0.21314,-0.213138 0.1019,0.254661 0.0894,0.558932 -0.0278,0.676159 -0.11723,0.117226 -0.2006,-0.09114 -0.18528,-0.463021 z M 250.74721,76.49689 c 0.0169,-0.410969 0.10052,-0.494559 0.21313,-0.213138 0.10191,0.254659 0.0894,0.55893 -0.0278,0.676159 -0.11723,0.117223 -0.20061,-0.09114 -0.18529,-0.463021 z m -44.89678,-7.090757 c 0.25466,-0.101907 0.55894,-0.08938 0.67616,0.02784 0.11723,0.117226 -0.0911,0.200604 -0.46302,0.185287 -0.41097,-0.01693 -0.49456,-0.10052 -0.21314,-0.213135 z M 131.27345,55.712398 c 2.7e-4,-3.4925 0.0532,-4.873532 0.11732,-3.06896 0.0642,1.804569 0.0639,4.662069 -7.9e-4,6.35 -0.0645,1.687928 -0.11702,0.21146 -0.11665,-3.28104 z m 29.63637,-0.881943 c 0,-3.977569 0.0514,-5.604756 0.11433,-3.615973 0.0629,1.988785 0.0629,5.24316 0,7.231946 -0.0629,1.988783 -0.11433,0.361595 -0.11433,-3.615973 z m 12.70454,-1.76389 c 0,-4.947708 0.0496,-6.971768 0.11026,-4.497917 0.0607,2.473854 0.0607,6.521979 0,8.995834 -0.0606,2.473854 -0.11026,0.449791 -0.11026,-4.497917 z m -67.43299,2.293056 c 0.003,-0.970139 0.0712,-1.325141 0.15225,-0.7889 0.0811,0.536244 0.0789,1.329994 -0.005,1.76389 -0.0837,0.433895 -0.15008,-0.0049 -0.14743,-0.97499 z M 86.440675,53.595732 c 0.001,-1.358194 0.0653,-1.870591 0.1417,-1.138661 0.0764,0.731933 0.0751,1.843183 -0.003,2.469446 -0.0779,0.626263 -0.14041,0.02741 -0.13885,-1.330785 z m 25.385135,0.352779 c 0.003,-0.97014 0.0712,-1.325144 0.15225,-0.7889 0.0811,0.536244 0.0789,1.329994 -0.005,1.76389 -0.0837,0.433895 -0.15008,-0.0049 -0.14743,-0.97499 z M 95.265295,48.656845 c 0.001,-1.552224 0.0633,-2.14334 0.13782,-1.313593 0.0745,0.829746 0.0735,2.099746 -0.002,2.822223 -0.0757,0.722474 -0.13664,0.04359 -0.13536,-1.50863 z m 16.541465,-1.234724 c 0,-0.679098 0.0726,-0.956908 0.16134,-0.61736 0.0887,0.339548 0.0887,0.895173 0,1.234721 -0.0887,0.33955 -0.16134,0.06174 -0.16134,-0.617361 z m 24.28767,-0.558564 c 0.0169,-0.410967 0.10052,-0.494559 0.21314,-0.213138 0.10191,0.254662 0.0894,0.558932 -0.0278,0.676159 -0.11722,0.117226 -0.2006,-0.09113 -0.18528,-0.463021 z M 86.440675,43.717955 c 0.001,-1.358194 0.0653,-1.870591 0.1417,-1.138659 0.0764,0.731932 0.0751,1.843181 -0.003,2.469444 -0.0779,0.626264 -0.14044,0.02741 -0.13887,-1.330785 z m 49.300985,-2.498842 c 0.0169,-0.410966 0.10052,-0.494559 0.21313,-0.213137 0.10191,0.254662 0.0894,0.558933 -0.0278,0.676158 -0.11722,0.117225 -0.2006,-0.09113 -0.18528,-0.463021 z m 21.07266,-7.090756 c 0.25466,-0.101907 0.55894,-0.08937 0.67616,0.02785 0.11723,0.117225 -0.0911,0.200604 -0.46302,0.185286 -0.41097,-0.01693 -0.49456,-0.100521 -0.21314,-0.213136 z"
         id="path652" />
      <path
         style="fill:#d4915c;stroke-width:0.352777"
         d="m 9.4472111,50.391334 c 0.01693,-0.410964 0.100521,-0.494559 0.213137,-0.213135 0.101907,0.254661 0.08937,0.558932 -0.02785,0.676156 -0.117225,0.117226 -0.200604,-0.09113 -0.185287,-0.463021 z m 56.0916639,0 c 0.0169,-0.410964 0.10052,-0.494559 0.21314,-0.213135 0.1019,0.254661 0.0894,0.558932 -0.0278,0.676156 -0.11723,0.117226 -0.2006,-0.09113 -0.18528,-0.463021 z m -6.77563,-17.344906 c -0.43881,-0.559525 -0.42633,-0.572003 0.1332,-0.133193 0.58764,0.460858 0.77451,0.750554 0.48416,0.750554 -0.0733,0 -0.35106,-0.277812 -0.61736,-0.617361 z M 17.886027,25.06393 c 0,-0.07326 0.277812,-0.351069 0.617361,-0.617361 0.559525,-0.43881 0.572003,-0.426332 0.133193,0.133193 -0.460858,0.587639 -0.750554,0.774516 -0.750554,0.484168 z m 3.527777,-3.527778 c 0,-0.07326 0.277813,-0.351069 0.617361,-0.617361 0.559525,-0.43881 0.572003,-0.426332 0.133193,0.133193 -0.460858,0.587639 -0.750554,0.774517 -0.750554,0.484168 z m 8.400521,-4.341127 c 0.254661,-0.101907 0.558931,-0.08937 0.676157,0.02785 0.117224,0.117225 -0.09114,0.200603 -0.463021,0.185285 -0.410966,-0.01693 -0.494559,-0.10052 -0.213136,-0.213135 z m 2.116665,0 c 0.254662,-0.101907 0.558933,-0.08937 0.676159,0.02785 0.117223,0.117225 -0.09114,0.200603 -0.463021,0.185285 -0.410967,-0.01693 -0.494559,-0.10052 -0.213138,-0.213135 z"
         id="path650" />
      <path
         style="fill:#f47b2f;stroke-width:0.352777"
         d="M 57.749915,63.103891 C 52.354937,57.57629 45.516262,54.754416 37.465192,54.733712 c -7.790317,-0.02003 -14.246901,1.558745 -24.38194,5.961912 -0.459289,0.199538 -2.015522,-3.357001 -2.761577,-6.311172 -2.2973139,-9.096727 0.63888,-20.12613 7.752951,-29.122879 4.000163,-5.058773 8.774347,-7.908084 13.23475,-7.898714 2.864424,0.006 3.929644,0.444895 8.119144,3.345139 1.830586,1.267252 6.185839,3.997402 9.678339,6.066999 11.919606,7.063364 14.839276,10.079519 16.271686,16.809438 0.63297,2.973872 0.46572,7.158631 -0.43536,10.893243 -0.6114,2.533983 -3.17426,8.090241 -4.44128,9.628621 l -0.81171,0.985568 z"
         id="path648" />
      <path
         style="fill:#768287;stroke-width:0.352777"
         d="m 204.85825,95.972258 c 0,-0.07326 0.27781,-0.351068 0.61736,-0.617361 0.55952,-0.438811 0.572,-0.426333 0.13319,0.133194 -0.46086,0.58764 -0.75055,0.774518 -0.75055,0.484167 z"
         id="path646" />
      <path
         style="fill:#6c7987;stroke-width:0.352777"
         d="m 9.4472111,121.29967 c 0.01693,-0.41097 0.100521,-0.49456 0.213137,-0.21314 0.101907,0.25466 0.08937,0.55893 -0.02785,0.67616 -0.117225,0.11722 -0.200604,-0.0911 -0.185287,-0.46302 z"
         id="path644" />
      <path
         style="fill:#787c54;stroke-width:0.352777"
         d="m 58.727925,99.269281 c -2.5835,-3.301101 -8.906326,-7.158159 -13.969049,-8.521414 -3.806168,-1.024901 -10.439429,-1.021797 -14.260686,0.0067 -3.205684,0.86279 -7.122794,2.747679 -9.634879,4.636244 l -1.785214,1.342106 -0.860619,-1.625359 C 16.366105,91.611043 12.534393,86.235393 9.6200581,83.045901 5.6292131,78.678255 4.3040831,76.087683 4.3040831,72.653394 c 0,-1.891171 0.197199,-2.877611 0.833684,-4.170286 0.986111,-2.002753 3.424177,-4.575855 5.8360209,-6.159254 l 1.730818,-1.136301 1.205658,1.8307 c 3.985364,6.051468 9.374717,9.961065 16.499372,11.969136 4.00172,1.127876 10.46217,1.127876 14.46389,0 5.383,-1.517187 11.261669,-5.099455 13.784489,-8.399814 l 1.08448,-1.418725 1.25927,1.974551 c 4.50202,7.059234 5.81825,14.631389 3.93054,22.612051 -0.60008,2.536957 -3.15281,8.074583 -4.45429,9.662686 l -0.83561,1.019632 z"
         id="path642" />
      <path
         style="fill:#5b6970;stroke-width:0.352777"
         d="m 35.524916,148.49295 c 0.455697,-0.48507 0.907917,-0.88195 1.004932,-0.88195 0.09701,0 -0.196456,0.39688 -0.652156,0.88195 -0.455699,0.48507 -0.907917,0.88194 -1.004932,0.88194 -0.09701,0 0.196456,-0.39687 0.652156,-0.88194 z m 2.82222,-3.109 c 0,-0.0607 0.515938,-0.57665 1.14653,-1.14653 l 1.146526,-1.03614 -1.03614,1.14653 c -0.965829,1.06873 -1.256916,1.30868 -1.256916,1.03614 z m 44.606009,-23.17294 c 0,-5.72382 0.0485,-8.06539 0.10782,-5.20348 0.0593,2.86191 0.0593,7.54504 0,10.40695 -0.0593,2.86191 -0.10782,0.52035 -0.10782,-5.20347 z m 120.169065,8.96643 c 0.0169,-0.41097 0.10052,-0.49456 0.21313,-0.21314 0.10191,0.25466 0.0894,0.55894 -0.0278,0.67616 -0.11723,0.11723 -0.2006,-0.0911 -0.18529,-0.46302 z M 97.921575,130.06031 c -0.43881,-0.55953 -0.42633,-0.57201 0.1332,-0.13319 0.58764,0.46085 0.77451,0.75055 0.48416,0.75055 -0.0733,0 -0.35106,-0.27781 -0.61736,-0.61736 z m 24.341675,0 c -0.43881,-0.55953 -0.42633,-0.57201 0.13319,-0.13319 0.58764,0.46085 0.77452,0.75055 0.48417,0.75055 -0.0733,0 -0.35107,-0.27781 -0.61736,-0.61736 z M 154.0861,128.708 c 0.0169,-0.41097 0.10052,-0.49456 0.21313,-0.21314 0.10191,0.25466 0.0894,0.55893 -0.0278,0.67616 -0.11723,0.11722 -0.2006,-0.0911 -0.18529,-0.46302 z m -58.507125,-6.84977 c 0,-0.6791 0.0726,-0.95691 0.16134,-0.61736 0.0887,0.33954 0.0887,0.89517 0,1.23472 -0.0887,0.33955 -0.16134,0.0617 -0.16134,-0.61736 z m 24.341675,0 c 0,-0.6791 0.0726,-0.95691 0.16134,-0.61736 0.0887,0.33954 0.0887,0.89517 0,1.23472 -0.0887,0.33955 -0.16134,0.0617 -0.16134,-0.61736 z m -5.41851,-8.37847 c -0.43881,-0.55953 -0.42633,-0.57201 0.13319,-0.1332 0.58764,0.46086 0.77452,0.75056 0.48417,0.75056 -0.0733,0 -0.35107,-0.27782 -0.61736,-0.61736 z m 24.34166,0 c -0.43881,-0.55953 -0.42633,-0.57201 0.1332,-0.1332 0.58764,0.46086 0.77451,0.75056 0.48416,0.75056 -0.0733,0 -0.35106,-0.27782 -0.61736,-0.61736 z m 41.34785,-8.40787 c 0.0169,-0.41097 0.10052,-0.49456 0.21314,-0.21314 0.10191,0.25466 0.0894,0.55893 -0.0278,0.67616 -0.11722,0.11722 -0.2006,-0.0911 -0.18528,-0.46302 z m -20.55511,-0.38798 c 0.25467,-0.10191 0.55894,-0.0894 0.67616,0.0278 0.11723,0.11723 -0.0911,0.2006 -0.46302,0.18529 -0.41096,-0.0169 -0.49456,-0.10052 -0.21314,-0.21314 z m -41.27499,-7.408333 c 0.25466,-0.101907 0.55893,-0.08938 0.67616,0.02783 0.11722,0.117226 -0.0911,0.200604 -0.46302,0.185287 -0.41097,-0.01693 -0.49456,-0.10052 -0.21314,-0.213135 z m 37.74722,0 c 0.25466,-0.101907 0.55893,-0.08938 0.67616,0.02783 0.11722,0.117226 -0.0911,0.200604 -0.46302,0.185287 -0.41097,-0.01693 -0.49456,-0.10052 -0.21314,-0.213135 z m 71.61388,0 c 0.25466,-0.101907 0.55894,-0.08938 0.67616,0.02783 0.11723,0.117226 -0.0911,0.200604 -0.46302,0.185287 -0.41097,-0.01693 -0.49456,-0.10052 -0.21314,-0.213135 z m -120.0882,-2.316652 -0.67203,-0.79375 0.79375,0.672039 c 0.43656,0.369617 0.79375,0.726805 0.79375,0.79375 0,0.28231 -0.28392,0.07389 -0.91547,-0.672039 z m 37.74723,0 -0.67204,-0.79375 0.79375,0.672039 c 0.43656,0.369617 0.79375,0.726805 0.79375,0.79375 0,0.28231 -0.28391,0.07389 -0.91546,-0.672039 z m 71.61388,0 -0.67204,-0.79375 0.79375,0.672039 c 0.74593,0.631549 0.95435,0.915461 0.67204,0.915461 -0.0669,0 -0.42413,-0.357188 -0.79375,-0.79375 z m -13.40823,-8.73125 c 0,-2.813402 0.0548,-3.96434 0.12175,-2.557637 0.067,1.406699 0.067,3.708574 0,5.115276 -0.067,1.4067 -0.12175,0.255763 -0.12175,-2.557639 z M 94.227115,83.934621 c 2.6e-4,-2.910417 0.0551,-4.054099 0.12142,-2.541513 0.0663,1.51258 0.0659,3.89383 -0.001,5.291664 -0.0668,1.397833 -0.12101,0.160263 -0.12052,-2.750151 z m 22.723325,4.874289 c 0.25466,-0.101907 0.55893,-0.08938 0.67616,0.02783 0.11722,0.117226 -0.0911,0.200605 -0.46302,0.185288 -0.41097,-0.01693 -0.49456,-0.100521 -0.21314,-0.213135 z m 37.74722,0 c 0.25466,-0.101907 0.55893,-0.08938 0.67616,0.02783 0.11722,0.117226 -0.0911,0.200605 -0.46302,0.185288 -0.41097,-0.01693 -0.49456,-0.100521 -0.21314,-0.213135 z m 71.61388,0 c 0.25466,-0.101907 0.55894,-0.08938 0.67616,0.02783 0.11723,0.117226 -0.0911,0.200605 -0.46302,0.185288 -0.41097,-0.01693 -0.49456,-0.100521 -0.21314,-0.213135 z M 105.10398,86.580452 c 0,-0.679096 0.0726,-0.956908 0.16134,-0.617361 0.0887,0.339548 0.0887,0.895173 0,1.234724 -0.0887,0.339547 -0.16134,0.06173 -0.16134,-0.617363 z m 37.74722,0 c 0,-0.679096 0.0726,-0.956908 0.16134,-0.617361 0.0887,0.339548 0.0887,0.895173 0,1.234724 -0.0887,0.339547 -0.16134,0.06173 -0.16134,-0.617363 z m 47.27222,0 c 0,-0.679096 0.0726,-0.956908 0.16134,-0.617361 0.0887,0.339548 0.0887,0.895173 0,1.234724 -0.0887,0.339547 -0.16134,0.06173 -0.16134,-0.617363 z m 24.34167,0 c 0,-0.679096 0.0726,-0.956908 0.16133,-0.617361 0.0887,0.339548 0.0887,0.895173 0,1.234724 -0.0887,0.339547 -0.16133,0.06173 -0.16133,-0.617363 z m 55.25926,0.0882 c -0.43881,-0.559528 -0.42633,-0.572006 0.13319,-0.133197 0.58764,0.460859 0.77451,0.750557 0.48419,0.750557 -0.0733,0 -0.35108,-0.277812 -0.61738,-0.61736 z M 140.7713,78.466565 c 0,-1.455209 0.0623,-2.050521 0.13838,-1.322917 0.0761,0.727604 0.0761,1.918229 0,2.645833 -0.0761,0.727604 -0.13838,0.132292 -0.13838,-1.322916 z M 250.74721,77.908 c 0.0169,-0.410967 0.10052,-0.494559 0.21313,-0.213138 0.10191,0.254662 0.0894,0.558933 -0.0278,0.676159 -0.11723,0.117226 -0.20061,-0.09114 -0.18529,-0.463021 z m -47.17123,-4.909492 c 0.001,-1.940277 0.0602,-2.689018 0.13165,-1.663869 0.0715,1.025152 0.0707,2.612652 -0.002,3.527779 -0.0724,0.915125 -0.13089,0.07637 -0.12997,-1.86391 z m 61.18834,2.757625 c 0.25466,-0.101907 0.55893,-0.08938 0.67616,0.02783 0.11722,0.117227 -0.0911,0.200605 -0.46302,0.185288 -0.41097,-0.01693 -0.49456,-0.10052 -0.21314,-0.213135 z m -123.02544,-2.78702 c 0.0169,-0.410969 0.10052,-0.494559 0.21313,-0.213138 0.10191,0.254659 0.0894,0.55893 -0.0278,0.676159 -0.11723,0.117224 -0.20061,-0.09114 -0.18529,-0.463021 z M 92.961545,70.817246 c 0.25466,-0.101907 0.55893,-0.08938 0.67616,0.02783 0.11722,0.117224 -0.0911,0.200602 -0.46302,0.185285 -0.41097,-0.01693 -0.49456,-0.10052 -0.21314,-0.213135 z M 206.90877,69.406133 c 0.25466,-0.101907 0.55893,-0.08938 0.67616,0.02784 0.11722,0.117226 -0.0911,0.200604 -0.46302,0.185287 -0.41097,-0.01693 -0.49456,-0.10052 -0.21314,-0.213135 z M 96.680695,58.887398 c -0.001,-1.74625 0.0586,-2.505101 0.13256,-1.686338 0.074,0.818764 0.0749,2.247514 0.002,3.175 -0.0729,0.927487 -0.13344,0.257588 -0.13451,-1.488662 z m 22.603825,-4.938887 c 2.4e-4,-4.46264 0.0508,-6.239621 0.11235,-3.948848 0.0615,2.290776 0.0613,5.942023 -2.7e-4,8.11389 -0.0618,2.171866 -0.11214,0.297595 -0.1119,-4.165042 z m 29.86269,6.673379 c 0.0169,-0.410967 0.10052,-0.494559 0.21314,-0.213138 0.1019,0.254662 0.0894,0.558933 -0.0278,0.676159 -0.11722,0.117226 -0.2006,-0.09114 -0.18528,-0.463021 z M 135.74166,42.630224 c 0.0169,-0.410966 0.10052,-0.494559 0.21313,-0.213137 0.10191,0.254662 0.0894,0.558933 -0.0278,0.676158 -0.11722,0.117225 -0.2006,-0.09114 -0.18528,-0.463021 z m -29.02178,-2.151867 c 0.25466,-0.101907 0.55894,-0.08937 0.67616,0.02785 0.11722,0.117225 -0.0911,0.200604 -0.46302,0.185286 -0.41097,-0.01693 -0.49456,-0.100521 -0.21314,-0.213136 z m 46.91944,-5.997222 c 0.25466,-0.101907 0.55894,-0.08937 0.67616,0.02785 0.11723,0.117225 -0.0911,0.200604 -0.46302,0.185286 -0.41097,-0.01693 -0.49456,-0.100521 -0.21314,-0.213136 z m 4.58611,-0.352778 c 0.25466,-0.101907 0.55894,-0.08937 0.67616,0.02785 0.11723,0.117225 -0.0911,0.200604 -0.46302,0.185286 -0.41096,-0.01693 -0.49456,-0.100521 -0.21314,-0.213136 z"
         id="path640" />
      <path
         style="fill:#705229;stroke-width:0.352777"
         d="m 57.540005,98.133925 -0.67204,-0.79375 0.79375,0.672039 c 0.74593,0.631549 0.95435,0.915461 0.67204,0.915461 -0.0669,0 -0.42413,-0.357188 -0.79375,-0.79375 z M 36.318666,75.740131 c 0.727604,-0.07611 1.918229,-0.07611 2.645833,0 0.727604,0.07611 0.132292,0.138383 -1.322917,0.138383 -1.455208,0 -2.050521,-0.06227 -1.322916,-0.138383 z m -3.682119,-0.336775 c 0.254661,-0.101907 0.558932,-0.08938 0.676158,0.02783 0.117224,0.117223 -0.09114,0.200604 -0.463021,0.185285 -0.410966,-0.01693 -0.494559,-0.100521 -0.213137,-0.213133 z m 9.525,0 c 0.254658,-0.101907 0.558929,-0.08938 0.676158,0.02783 0.117224,0.117223 -0.09114,0.200604 -0.463021,0.185285 -0.410969,-0.01693 -0.494559,-0.100521 -0.213137,-0.213133 z M 19.957694,69.735315 c -0.43881,-0.559528 -0.426332,-0.572006 0.133194,-0.133194 0.339548,0.266292 0.617361,0.544105 0.617361,0.61736 0,0.290351 -0.289697,0.103473 -0.750555,-0.484166 z m 34.617221,0.484166 c 0,-0.07326 0.27781,-0.351068 0.61736,-0.61736 0.55953,-0.438812 0.572,-0.426334 0.13319,0.133194 -0.46085,0.587639 -0.75055,0.774517 -0.75055,0.484166 z m -37.060657,-2.600833 -1.215731,-1.322917 1.322916,1.215732 c 1.231342,1.131575 1.485119,1.430102 1.215731,1.430102 -0.05895,0 -0.654264,-0.595313 -1.322916,-1.322917 z m 39.882877,0.08819 c 0.65821,-0.679096 1.27612,-1.234721 1.37313,-1.234721 0.097,0 -0.36215,0.555625 -1.02035,1.234721 -0.65821,0.679098 -1.27611,1.234723 -1.37313,1.234723 -0.097,0 0.36214,-0.555625 1.02035,-1.234723 z M 15.371584,65.149205 c -0.43881,-0.559528 -0.426333,-0.572006 0.133193,-0.133194 0.339548,0.266292 0.617361,0.544105 0.617361,0.61736 0,0.290351 -0.289696,0.103473 -0.750554,-0.484166 z m 21.129787,-10.57442 c 0.634066,-0.07851 1.586566,-0.07689 2.116667,0.0036 0.530103,0.0805 0.01132,0.144736 -1.152846,0.142756 -1.164166,-0.0021 -1.597887,-0.06784 -0.963821,-0.146354 z"
         id="path638" />
      <path
         style="fill:#3a4d5e;stroke-width:0.352777"
         d="m 25.258143,152.9073 c -1.854013,-0.33471 -4.269375,-1.87092 -5.961188,-3.79142 -7.022023,-7.97119 -11.6991489,-28.01627 -8.870613,-38.01737 0.439003,-1.55223 1.346965,-3.96584 2.017694,-5.36358 1.580639,-3.29393 6.853102,-9.944745 6.853102,-8.644681 0,0.213728 1.104969,2.041041 2.455487,4.060701 3.915794,5.85595 7.550712,8.73385 12.290349,9.73074 5.14564,1.08229 12.752657,-0.41689 17.915125,-3.53068 2.723326,-1.64259 6.311336,-4.64816 7.058126,-5.91237 l 0.62067,-1.05071 1.38935,2.13817 c 3.63217,5.58977 5.4903,13.17326 4.52074,18.45018 -1.05917,5.76462 -4.04688,8.97876 -13.665681,14.70135 -8.257321,4.91259 -10.126287,6.32227 -14.742687,11.1197 -5.009306,5.20574 -8.096003,6.79319 -11.880474,6.10997 z M 36.671442,89.855554 c 0.533578,-0.08083 1.406703,-0.08083 1.940277,0 0.533578,0.08083 0.09701,0.146963 -0.970137,0.146963 -1.067154,0 -1.503717,-0.06614 -0.97014,-0.146963 z"
         id="path636" />
      <path
         style="fill:#753d10;stroke-width:0.352777"
         d="M 30.78245,74.905075 C 25.580324,73.627502 20.470995,70.599558 16.971459,66.720269 15.213328,64.77135 12.744695,61.256938 12.981855,61.040556 c 0.07792,-0.07109 1.094172,-0.604491 2.258338,-1.185336 5.855729,-2.921624 13.329956,-4.707951 20.637499,-4.932328 7.129836,-0.218916 11.314383,0.757169 16.459796,3.839409 2.018887,1.209368 7.176317,5.760394 7.176317,6.33254 0,0.583178 -2.62182,3.230562 -4.93889,4.987038 -4.987747,3.78102 -10.529408,5.573572 -17.109723,5.534448 -2.584494,-0.01537 -4.816453,-0.252915 -6.682742,-0.711252 z"
         id="path634" />
      <path
         style="fill:#263841;stroke-width:0.352777"
         d="m 103.61103,132.57283 c -5.922865,-1.14059 -7.999205,-4.31341 -7.692605,-11.75493 0.13561,-3.29124 0.27627,-3.96479 1.17157,-5.60974 1.25428,-2.30453 2.965415,-3.37844 6.301655,-3.95493 4.3815,-0.75711 8.93362,0.15578 11.06161,2.21831 1.83633,1.77983 2.38693,3.71444 2.38693,8.38669 0,3.08551 -0.15447,4.45729 -0.64511,5.7289 -0.77162,1.99984 -2.79855,3.85345 -4.90335,4.48407 -1.60151,0.47982 -6.22568,0.78182 -7.6807,0.50163 z m 5.56576,-10.81781 0.0977,-5.21848 -2.74354,0.1032 -2.74354,0.10321 -0.0977,5.21848 -0.0977,5.21849 2.74354,-0.10321 2.74354,-0.10321 z m 18.7759,10.81781 c -5.92285,-1.14059 -7.9992,-4.31341 -7.6926,-11.75493 0.13561,-3.29124 0.27628,-3.96479 1.17158,-5.60974 1.25428,-2.30453 2.9654,-3.37844 6.30164,-3.95493 4.3815,-0.75711 8.93363,0.15578 11.06162,2.21831 1.83632,1.77983 2.38693,3.71444 2.38693,8.38669 0,3.08551 -0.15447,4.45729 -0.64511,5.7289 -0.77163,1.99984 -2.79856,3.85345 -4.90336,4.48407 -1.6015,0.47982 -6.22568,0.78182 -7.6807,0.50163 z m 5.56577,-10.81781 0.0977,-5.21848 -2.74354,0.1032 -2.74355,0.10321 -0.0977,5.21848 -0.0977,5.21849 2.74354,-0.10321 2.74355,-0.10321 z m 13.83701,10.59905 c -2.39349,-0.85618 -2.46828,-1.31552 -2.4689,-15.16343 l -5.3e-4,-12.2523 0.79375,-0.16362 c 0.43657,-0.09 2.10344,-0.26267 3.70417,-0.38374 l 2.91042,-0.22013 v 11.48952 11.48952 h 1.09947 c 0.96805,0 1.07405,0.0949 0.88677,0.79375 -0.117,0.43657 -0.21489,1.53083 -0.21754,2.4317 -0.003,1.13327 -0.16923,1.70105 -0.53842,1.84272 -1.23726,0.47478 -4.99077,0.55753 -6.16917,0.13601 z m 48.83103,0.0798 c -2.33285,-0.7177 -2.42916,-1.05867 -2.54912,-9.0243 l -0.10837,-7.19579 h -1.21455 -1.21455 v -2.46944 -2.46945 h 1.21629 1.21628 l 0.10663,-1.8314 0.10664,-1.83142 3.175,-0.80572 c 1.74625,-0.44314 3.37343,-0.80963 3.61597,-0.81442 0.31435,-0.006 0.44097,0.75101 0.44097,2.63713 v 2.64583 h 1.5875 1.5875 v 2.46945 2.46944 h -1.5875 -1.5875 v 5.46806 5.46805 h 1.23472 c 1.19869,0 1.23472,0.0399 1.23472,1.36702 0,1.97838 -0.36425,3.50079 -0.88545,3.70079 -0.99687,0.38254 -5.35419,0.53029 -6.37518,0.21617 z M 83.149915,122.21101 v -10.23056 h -3.175 -3.175 v -2.99861 -2.99861 h 9.87777 9.87778 v 2.99861 2.99861 h -3.175 -3.175 v 10.23056 10.23055 h -3.52778 -3.52777 z m 74.083335,-3.47677 v -13.70732 l 2.38125,-0.22489 c 1.30968,-0.12369 2.97656,-0.22602 3.70416,-0.2274 l 1.32292,-0.002 v 7.23194 7.23194 h 1.01343 c 0.95298,0 1.11348,-0.23147 2.69074,-3.88055 l 1.67731,-3.88056 h 3.81264 3.81264 l -1.73792,3.71242 c -0.95586,2.04183 -2.06469,4.35295 -2.46408,5.13581 l -0.72616,1.42339 2.64093,5.44752 2.64092,5.44753 h -3.82508 -3.82508 l -1.12884,-2.73403 c -2.62453,-6.35662 -2.46558,-6.08542 -3.56656,-6.08542 h -1.01489 v 4.40972 4.40973 h -3.70417 -3.70416 z m 23.28333,3.65987 v -10.04744 l 0.79375,-0.16385 c 0.43656,-0.0901 1.5875,-0.2599 2.55764,-0.3773 0.97014,-0.1174 2.27982,-0.30249 2.91041,-0.4113 l 1.14653,-0.19785 v 10.6226 10.62259 h -3.70416 -3.70417 z M 36.504379,111.01613 c 0.829747,-0.0745 2.099747,-0.0735 2.822221,0.002 0.722474,0.0758 0.04359,0.13677 -1.508631,0.13549 -1.55222,-0.001 -2.143336,-0.0633 -1.31359,-0.13782 z m 5.657168,-0.335 c 0.254658,-0.1019 0.558929,-0.0894 0.676158,0.0278 0.117224,0.11723 -0.09114,0.2006 -0.463021,0.18529 -0.410969,-0.0169 -0.494559,-0.10052 -0.213137,-0.21314 z m 139.907133,-2.02665 c -1.32583,-0.57716 -1.5521,-1.10275 -1.5521,-3.60524 0,-2.37745 0.36791,-3.11262 1.80908,-3.61502 2.29396,-0.79967 4.88725,-0.22418 5.55063,1.23178 0.48498,1.06442 0.52447,3.65314 0.0738,4.83847 -0.57378,1.50918 -3.66699,2.11401 -5.88142,1.15001 z M 27.01325,107.48253 c -0.43881,-0.55952 -0.426333,-0.572 0.133193,-0.13319 0.339548,0.26629 0.617361,0.54411 0.617361,0.61736 0,0.29035 -0.289696,0.10347 -0.750554,-0.48417 z m -2.822222,-2.82222 c -0.43881,-0.55952 -0.426333,-0.572 0.133193,-0.13319 0.339548,0.26629 0.617361,0.5441 0.617361,0.61736 0,0.29035 -0.289696,0.10347 -0.750554,-0.48417 z m 33.206107,-1.67569 c 0.65821,-0.6791 1.27612,-1.23472 1.37313,-1.23472 0.097,0 -0.36215,0.55562 -1.02035,1.23472 -0.65821,0.6791 -1.27611,1.23472 -1.37313,1.23472 -0.097,0 0.36214,-0.55562 1.02035,-1.23472 z m 54.680555,-5.93186 c -2.4448,-0.568502 -3.16339,-0.968327 -4.52258,-2.516354 -1.46995,-1.67418 -2.18019,-4.265991 -2.18019,-7.955954 0,-7.192513 2.54389,-10.193372 9.1605,-10.806031 2.73198,-0.252965 7.12117,0.359035 8.52582,1.188781 1.48006,0.874297 2.22952,2.695107 2.2179,5.38843 -0.019,4.405199 -1.83233,5.818719 -8.28199,6.455945 l -3.86112,0.381476 v 1.341533 1.341532 l 3.26319,-0.01238 c 1.79476,-0.0068 4.23102,-0.220179 5.41392,-0.474139 l 2.15072,-0.461745 0.38605,2.494078 c 0.21233,1.371746 0.32338,2.556751 0.24679,2.633343 -0.0766,0.07659 -1.05939,0.355544 -2.18399,0.619895 -3.07043,0.721735 -8.07727,0.906602 -10.33502,0.381603 z m 6.02042,-12.248607 c 0.51821,-0.277342 0.68236,-0.744088 0.68236,-1.940277 v -1.575088 h -2.13986 c -2.96323,0 -3.50458,0.356121 -3.50458,2.305465 v 1.575088 h 2.13985 c 1.17693,0 2.44693,-0.164332 2.82223,-0.365188 z m 31.7268,12.248607 c -2.4448,-0.568502 -3.16339,-0.968327 -4.52258,-2.516354 -1.46995,-1.67418 -2.18019,-4.265991 -2.18019,-7.955954 0,-7.192513 2.54389,-10.193372 9.1605,-10.806031 2.73198,-0.252965 7.12117,0.359035 8.52582,1.188781 1.48006,0.874297 2.22952,2.695107 2.2179,5.38843 -0.019,4.405199 -1.83233,5.818719 -8.28199,6.455945 l -3.86112,0.381476 v 1.341533 1.341532 l 3.26319,-0.01238 c 1.79476,-0.0068 4.23102,-0.220179 5.41392,-0.474139 l 2.15072,-0.461745 0.38605,2.494078 c 0.21233,1.371746 0.32338,2.556751 0.24679,2.633343 -0.0766,0.07659 -1.05939,0.355544 -2.18399,0.619895 -3.07043,0.721735 -8.07727,0.906602 -10.33502,0.381603 z m 6.02042,-12.248607 c 0.51822,-0.277342 0.68236,-0.744088 0.68236,-1.940277 v -1.575088 h -2.13986 c -2.96323,0 -3.50458,0.356121 -3.50458,2.305465 v 1.575088 h 2.13986 c 1.17692,0 2.44692,-0.164332 2.82222,-0.365188 z m 40.3135,12.396988 c -4.19141,-1.082921 -5.76447,-3.981193 -5.76447,-10.620689 0,-5.704285 1.00737,-8.270997 3.86542,-9.848789 1.6629,-0.918001 5.01054,-1.18536 8.04083,-0.642179 l 1.4993,0.268754 v -3.35556 -3.355557 l 1.14653,-0.0024 c 0.63059,-0.0013 2.21809,-0.103709 3.52778,-0.227399 l 2.38125,-0.224896 v 13.985738 13.985731 h -1.74395 c -1.5636,0 -1.80859,-0.109442 -2.36911,-1.058333 -0.65917,-1.115893 -0.9945,-1.288851 -1.35811,-0.700513 -0.86609,1.40136 -6.50461,2.49918 -9.22547,1.796203 z m 7.42695,-5.887042 c 0.11777,-0.306909 0.21413,-2.694837 0.21413,-5.306505 v -4.748487 l -2.73403,0.103036 -2.73402,0.103032 -0.0976,5.203473 -0.0976,5.20347 h 2.61753 c 2.0614,0 2.66301,-0.118557 2.83165,-0.558019 z m 17.85302,5.738661 c -2.4448,-0.568502 -3.1634,-0.968327 -4.52259,-2.516354 -1.46995,-1.67418 -2.18019,-4.265991 -2.18019,-7.955954 0,-7.192513 2.54389,-10.193372 9.16051,-10.806031 2.73198,-0.252965 7.12116,0.359035 8.52581,1.188781 1.48007,0.874297 2.22952,2.695107 2.21791,5.38843 -0.019,4.405199 -1.83234,5.818719 -8.282,6.455945 l -3.86112,0.381476 v 1.341533 1.341532 l 3.2632,-0.01238 c 1.79476,-0.0068 4.23102,-0.220179 5.41392,-0.474139 l 2.15072,-0.461745 0.38604,2.494078 c 0.21233,1.371746 0.32339,2.556751 0.2468,2.633343 -0.0766,0.07659 -1.05939,0.355544 -2.184,0.619895 -3.07042,0.721735 -8.07726,0.906602 -10.33501,0.381603 z m 6.02041,-12.248607 c 0.51822,-0.277342 0.68237,-0.744088 0.68237,-1.940277 v -1.575088 h -2.13986 c -2.96324,0 -3.50459,0.356121 -3.50459,2.305465 v 1.575088 h 2.13986 c 1.17693,0 2.44693,-0.164332 2.82222,-0.365188 z m 29.45042,12.320365 c -1.155,-0.168304 -2.63974,-0.484137 -3.29943,-0.701852 -1.10657,-0.365202 -1.18189,-0.481566 -0.97292,-1.503058 0.12457,-0.608965 0.32234,-1.790169 0.43948,-2.624892 0.16893,-1.203791 0.33006,-1.472753 0.77908,-1.300448 1.53866,0.590436 4.06807,0.899596 6.59118,0.805608 l 2.79595,-0.104145 0.10462,-1.241306 0.10462,-1.2413 -3.35848,-0.571352 c -5.93333,-1.009386 -7.39341,-2.377321 -7.17733,-6.724346 0.14332,-2.883321 0.83063,-3.972798 3.28934,-5.213982 1.60557,-0.810506 2.09921,-0.877155 6.15528,-0.831033 2.42535,0.02759 5.1241,0.193728 5.99722,0.369218 l 1.58751,0.319077 -0.0609,1.701843 c -0.12131,3.394252 -0.0301,3.315417 -3.59946,3.111904 -1.72688,-0.09846 -3.71321,-0.07145 -4.41405,0.06003 -1.16172,0.21794 -1.27426,0.343099 -1.27426,1.41714 0,1.168776 0.016,1.180082 2.01589,1.429957 3.21968,0.402272 6.19677,1.465977 7.28653,2.603444 2.27823,2.37794 1.85508,6.951604 -0.8193,8.855935 -2.10342,1.497766 -7.31843,2.09061 -12.17062,1.383559 z M 78.916575,83.934621 V 70.705454 l 6.4382,0.007 c 12.03032,0.01304 14.682715,1.052545 16.185005,6.34301 0.60136,2.117767 0.60136,11.640566 0,13.758333 -1.50229,5.290468 -4.154685,6.329955 -16.185005,6.343013 l -6.4382,0.007 z m 14.6738,6.489348 c 0.60297,-0.666274 0.67204,-1.333196 0.67204,-6.489348 0,-7.33793 0.068,-7.231946 -4.64079,-7.231946 h -3.29671 v 7.231946 7.231943 h 3.29671 c 2.9035,0 3.37687,-0.08857 3.96875,-0.742595 z m 37.184535,-1.374071 v -8.11389 h -1.23472 -1.23472 v -2.469443 -2.469444 h 1.18928 c 1.16794,0 1.19366,-0.03313 1.43439,-1.847845 0.32566,-2.454915 1.14386,-4.091014 2.44011,-4.87931 1.37688,-0.83733 4.21889,-1.182 6.61772,-0.802577 1.83787,0.290695 1.90424,0.340424 2.0158,1.510213 0.0634,0.665289 0.0181,1.728073 -0.10078,2.361734 l -0.21614,1.152117 -1.7513,-0.207417 -1.7513,-0.207415 v 1.460249 c 0,1.433671 0.0225,1.460251 1.23472,1.460251 h 1.23472 v 2.469444 2.469443 h -1.23472 -1.23472 v 8.11389 8.113887 h -3.70417 -3.70417 z m 35.98334,-2.469446 V 75.997121 h 1.92786 c 1.46403,0 2.0143,0.148532 2.2871,0.61736 1.09967,1.889837 1.11409,1.892303 3.6379,0.622075 3.03958,-1.529807 6.07381,-1.901007 8.87728,-1.086016 3.33528,0.969592 3.3753,1.110972 3.37687,11.929218 l 0.001,9.084027 h -3.70416 -3.70417 v -7.76111 -7.76111 h -2.2225 c -1.25824,0 -2.40617,0.183665 -2.64583,0.423333 -0.30213,0.302122 -0.42334,2.524323 -0.42334,7.76111 v 7.337777 h -3.70416 -3.70417 z m 71.96666,0 V 75.997121 l 1.85208,7.94e-4 c 1.80942,7.94e-4 1.87505,0.03699 2.84904,1.578681 l 0.99695,1.578052 1.85433,-1.40003 c 1.70873,-1.2901 3.94431,-2.372658 4.25604,-2.060937 0.0719,0.07191 0.24304,1.660567 0.38029,3.530346 0.24733,3.369376 0.24209,3.401856 -0.58973,3.654586 -0.46161,0.140248 -1.59334,0.573871 -2.51497,0.96361 l -1.6757,0.708613 v 6.306555 6.306558 h -3.70416 -3.70417 V 86.580616 Z m -135.2782,-24.83852 c -1.00187,-0.280839 -2.08976,-0.883941 -2.54122,-1.408798 -1.539375,-1.789633 -1.976615,-5.425037 -0.958505,-7.969535 1.010475,-2.525424 2.906865,-3.343024 8.691125,-3.747037 l 3.43958,-0.240247 v -1.230281 -1.230278 l -4.32152,0.2188 c -2.37684,0.12034 -4.81852,0.315759 -5.42595,0.434266 l -1.10441,0.215463 -0.39489,-2.267617 c -0.21719,-1.24719 -0.39489,-2.348549 -0.39489,-2.447464 0,-0.333698 2.62652,-0.95698 5.76933,-1.369083 5.97204,-0.783085 10.43194,0.24829 12.13129,2.805421 0.77232,1.162166 0.7966,1.460503 0.7966,9.789581 v 8.590888 h -1.71701 c -1.61929,0 -1.77148,-0.08231 -2.67401,-1.446133 l -0.95701,-1.446131 -0.76557,0.700765 c -2.26667,2.074797 -6.35555,2.949311 -9.57294,2.04742 z m 8.07662,-5.349176 c 0.35399,-0.353994 0.55436,-1.182796 0.55436,-2.293057 v -1.738688 h -2.44424 c -3.02997,0 -3.55298,0.419145 -3.55298,2.847419 v 1.738691 h 2.44425 c 1.75167,0 2.60132,-0.157078 2.99861,-0.554365 z m 30.68817,5.485566 c -2.33285,-0.717703 -2.42916,-1.058674 -2.54912,-9.024302 l -0.10837,-7.195786 h -1.21455 -1.21455 v -2.469445 -2.469445 h 1.21629 1.21629 l 0.10663,-1.831411 0.10663,-1.831412 3.175,-0.805721 c 1.74625,-0.443146 3.37343,-0.809636 3.61597,-0.814421 0.31435,-0.0062 0.44097,0.751011 0.44097,2.637132 v 2.645833 h 1.5875 1.5875 v 2.469445 2.469445 h -1.5875 -1.5875 v 5.468054 5.468056 h 1.23472 c 1.19869,0 1.23473,0.0399 1.23473,1.367013 0,1.978379 -0.36426,3.500792 -0.88546,3.700795 -0.99687,0.382535 -5.35418,0.530284 -6.37518,0.21617 z M 78.916575,48.656845 V 35.427678 h 8.94697 8.94696 l -0.47324,2.910417 c -0.26029,1.600729 -0.47642,2.950104 -0.4803,2.998611 -0.004,0.04851 -2.15018,0.08819 -4.76955,0.08819 h -4.7625 v 2.293055 2.293056 h 4.40972 4.40972 v 2.645834 2.645833 h -4.40972 -4.40972 v 2.293054 2.293056 h 5.11527 5.11528 v 2.99861 2.998613 h -8.81944 -8.81945 z m 44.802785,2.645833 V 40.719344 l 1.85208,6.35e-4 c 1.80942,6.09e-4 1.87505,0.03699 2.84904,1.578683 l 0.99695,1.578051 1.85433,-1.400029 c 1.70873,-1.290103 3.94431,-2.37266 4.25603,-2.060938 0.0719,0.07191 0.24305,1.660568 0.3803,3.530343 0.24733,3.369379 0.24209,3.401857 -0.58973,3.654589 -0.46161,0.140248 -1.59334,0.573871 -2.51497,0.96361 l -1.6757,0.708612 v 6.306556 6.306558 h -3.70416 -3.70417 V 51.30268 Z m 29.63333,-2.982627 V 34.754093 l 1.14653,-0.173774 c 0.63059,-0.09558 2.29746,-0.262628 3.70417,-0.371226 l 2.55763,-0.197452 v 3.883018 c 0,2.13566 0.06,3.883019 0.13331,3.883019 0.0733,0 0.68755,-0.231576 1.36495,-0.514612 3.66232,-1.530216 9.1936,-0.834275 10.50845,1.322164 0.63838,1.046992 0.69076,1.820279 0.69198,10.216752 l 0.001,9.084029 h -3.70417 -3.70416 v -7.761113 -7.76111 h -2.06199 c -3.24281,0 -3.22968,-0.03418 -3.22968,8.406249 v 7.115974 h -3.70416 -3.70417 z"
         id="path632" />
      <path
         style="fill:#1c261f;stroke-width:0.352777"
         d="m 32.348598,110.28512 c -4.419644,-1.46593 -7.613158,-4.44461 -11.467334,-10.695902 -1.826145,-2.961918 -1.857797,-2.860824 1.590873,-5.081083 10.968018,-7.061221 25.489108,-5.545645 34.941888,3.646906 1.15488,1.123087 2.09978,2.213389 2.09978,2.422909 0,0.71079 -4.87185,4.98117 -7.388394,6.47622 -1.377199,0.81817 -3.889772,1.9691 -5.583497,2.5576 -2.688444,0.93414 -3.661873,1.08572 -7.665611,1.19368 -3.734433,0.10071 -4.946679,0.004 -6.527705,-0.52033 z"
         id="path630" />
    </g>
  </g>
</svg>
