<svg width="533.333" height="533.333" xmlns="http://www.w3.org/2000/svg"><path style="fill:none;stroke-width:8;stroke:#fff;stroke-opacity:1;stroke-dasharray:none" d="M225.258 523.082C213.69 519 202.452 507.422 193.145 490c-11.26-21.079-20.19-52.77-23.18-82.273-1.12-11.045-.477-29.458 1.322-37.833 4.306-20.056 14.61-39.247 28.764-53.575 2.905-2.94 5.282-5.56 5.282-5.822 0-.777-11.768-20.196-16.638-27.454-5.987-8.924-11.726-16.084-18.737-23.376-8.058-8.382-12.914-14.936-16.277-21.968-3.586-7.497-4.611-11.79-4.544-19.032.136-14.716 9.986-28.826 28.08-40.223 2.957-1.863 4.118-2.973 3.887-3.717-.18-.583-1.562-3.86-3.068-7.28-3.183-7.228-5.632-15.31-7.207-23.78-1.58-8.497-1.55-28.493.055-36.667 5.753-29.321 20.251-57.514 39.408-76.635 13.359-13.332 26.325-20.08 40.041-20.834 11.61-.638 17.896 1.743 32.667 12.375 5.133 3.695 16.983 11.276 26.333 16.848 9.35 5.571 21.277 12.69 26.505 15.82 35.402 21.197 48.135 39.913 48.136 70.76 0 21.51-6.124 41.52-18.268 59.682-2.405 3.598-4.373 6.59-4.373 6.65 0 .061 1.97 3.058 4.38 6.66 8.388 12.547 14.02 26.256 16.71 40.674 1.89 10.133 1.75 30.07-.282 40.152-2.862 14.196-9.487 29.817-17.215 40.588-1.976 2.754-3.593 5.121-3.593 5.26 0 .139 1.617 2.506 3.593 5.26 7.42 10.342 14.228 26.112 17.11 39.634 1.79 8.398 2.477 25.39 1.317 32.59-1.966 12.206-7.552 22.616-17.269 32.183-7.273 7.16-14.95 12.572-31.75 22.382-35.587 20.779-42.823 26.262-60.918 46.157-10.208 11.223-19.919 18.05-29.056 20.427-5.97 1.553-13.781 1.328-19.102-.55zm17.244-.751c9.78-2.306 17.873-7.888 29.498-20.347 18.776-20.123 26.757-26.287 55.667-42.993 22.665-13.099 31.147-19.084 39.255-27.704 13.27-14.105 17.778-30.156 14.785-52.635-2.259-16.96-8.298-32.828-17.764-46.672l-3.888-5.687-8.194 8.051c-15.646 15.373-32.562 24.51-53.743 29.024-8.34 1.777-25.4 2.48-32.484 1.336-21.089-3.402-35.998-15.652-53.38-43.86l-5.438-8.824-6.574 6.837c-20.24 21.047-30.703 49.025-29.347 78.476 1.303 28.302 9.36 61.6 20.714 85.616 14.18 29.993 32.054 43.824 50.893 39.382zM296 362.987c21.848-4.244 42.075-15.358 57.519-31.605l5.852-6.157-3.474-4.01c-8.078-9.325-19.184-17.716-31.564-23.85-10.273-5.09-16.434-7.295-26.597-9.522-5.79-1.268-8.749-1.475-21.07-1.475-12.32 0-15.279.207-21.069 1.475-10.16 2.226-16.322 4.432-26.597 9.52-9.06 4.489-21.004 12.555-20.997 14.182.002.434 2.027 4.01 4.5 7.95 15.99 25.464 27.68 36.588 44.273 42.127 2.81.938 6.71 1.965 8.667 2.283 5.51.893 24.11.335 30.557-.918zm69.038-46.279c7.854-11.988 12.82-24.236 15.761-38.871 2.127-10.587 2.132-28.218.01-38.875-2.927-14.707-9.35-30.074-17.192-41.138l-3.668-5.176-3.808 4.331c-10.998 12.509-28.759 24.205-44.808 29.509-12.919 4.269-18.818 5.144-34.666 5.144-12.44 0-15.258-.2-21.334-1.523-28.826-6.27-52.845-22.57-68.15-46.248-2.3-3.56-4.486-6.484-4.856-6.5-1.46-.06-12.08 7.693-17.08 12.47-9.546 9.12-13.822 17.381-14.408 27.836-.413 7.381.74 12.506 4.5 20 3.37 6.715 6.94 11.491 15.202 20.333 12.036 12.881 19.377 22.913 30.381 41.516 3.194 5.4 5.978 9.817 6.188 9.817.209 0 2.52-1.595 5.135-3.546 12.52-9.336 26.884-15.824 42.656-19.266 5.865-1.28 8.762-1.476 21.766-1.476 13.003 0 15.9.196 21.765 1.476 22.155 4.835 43.391 16.858 57.354 32.473 2.135 2.386 4.112 4.339 4.396 4.339.283 0 2.468-2.981 4.856-6.625zm-67.599-87.34c21.846-4.65 40.692-15.22 56.447-31.654l5.552-5.791-3.617-4.128c-14.247-16.262-35.166-28.301-57.647-33.176-8.248-1.788-27.513-2.47-37.594-1.33-20.84 2.356-40.525 7.141-58.093 14.123-8.144 3.236-18.487 8.398-18.487 9.226 0 .343 2.151 3.865 4.78 7.826 6.344 9.556 18.906 22.177 28.246 28.377 14.355 9.53 30.002 15.548 46.307 17.813 7.301 1.014 26.75.28 34.106-1.286zm66.53-44.12c18.603-26.49 24.072-65.146 12.691-89.697-7.49-16.156-19.16-26.755-48.327-43.89-29.965-17.604-36.165-21.477-49.666-31.026-10.733-7.592-16.955-9.939-26.394-9.958-23.001-.048-49.946 23.115-66.727 57.364-15.913 32.478-18.9 62-9.211 91.073 1.762 5.289 5.6 14.187 6.636 15.39.081.093 3.87-1.594 8.421-3.75 17.878-8.47 37.353-14.208 60.608-17.86 5.838-.917 11.484-1.202 23.667-1.196 17.991.01 23.26.783 36.375 5.349 16.36 5.694 32.958 16.551 43.744 28.613 2.135 2.387 4.098 4.34 4.363 4.34.266 0 1.985-2.139 3.82-4.753z"/></svg>